<svg width="150" height="150" viewBox="0 0 150 150" fill="none" xmlns="http://www.w3.org/2000/svg">
<circle cx="75" cy="75" r="75" fill="white"/>
<path fill-rule="evenodd" clip-rule="evenodd" d="M52.6242 146.605C33.594 140.665 17.8203 127.347 8.65045 110H45.2001L57.034 82.3874C57.4574 83.3469 57.9293 84.2644 58.4499 85.14C61.2366 89.7 64.8466 93.4366 69.2799 96.35C73.7133 99.1367 78.5899 101.417 83.9099 103.19C89.3566 104.963 94.74 106.42 100.06 107.56C105.507 108.7 110.447 109.84 114.88 110.98C119.313 112.12 122.923 113.577 125.71 115.35C128.497 117.123 129.89 119.53 129.89 122.57C129.89 124.723 129.13 126.623 127.61 128.27C126.217 129.79 123.937 131.057 120.77 132.07C117.603 132.957 113.423 133.4 108.23 133.4C100.503 133.4 92.7133 132.197 84.8599 129.79C77.1333 127.257 70.2933 124.09 64.3399 120.29L52.6242 146.605ZM148.67 89.1369C149.543 84.5586 150 79.8327 150 75C150 71.0808 149.699 67.2318 149.12 63.4749C143.031 60.2492 137.001 57.8442 131.03 56.26C124.823 54.4866 118.807 53.6 112.98 53.6C107.787 53.6 103.607 54.17 100.44 55.31C97.2733 56.3233 94.9933 57.7166 93.5999 59.49C92.2066 61.2633 91.5099 63.29 91.5099 65.57C91.5099 68.4833 92.8399 70.8266 95.4999 72.6C98.2866 74.2466 101.897 75.64 106.33 76.78C110.89 77.7933 115.83 78.87 121.15 80.01C126.597 81.15 131.98 82.6067 137.3 84.38C141.373 85.6114 145.163 87.1971 148.67 89.1369ZM131.702 25.9071C121.404 14.0244 107.434 5.41122 91.5571 1.83368L79.1142 30.867C79.5667 30.6511 80.0253 30.4388 80.4899 30.23C89.2299 26.3033 100.123 24.34 113.17 24.34C119.445 24.34 125.622 24.8624 131.702 25.9071ZM14.3831 30.8257C24.0081 17.6406 37.8307 7.71454 53.8851 3.01323L28.0509 63.6936L14.3831 30.8257Z" fill="black"/>
</svg>
