<!-- Generated by IcoMoon.io -->
<svg version="1.1" xmlns="http://www.w3.org/2000/svg" width="1024" height="1024" viewBox="0 0 1024 1024">
<title></title>
<g id="icomoon-ignore">
</g>
<path fill="#000" d="M371.2 678.4l-166.4-166.4 166.4-166.4c16.64-16.64 16.64-43.093 0-59.733s-43.093-16.64-59.733 0l-195.84 195.84c-16.64 16.64-16.64 43.52 0 60.16l195.84 196.267c16.64 16.64 43.093 16.64 59.733 0s16.64-43.093 0-59.733zM652.8 678.4l166.4-166.4-166.4-166.4c-16.64-16.64-16.64-43.093 0-59.733s43.093-16.64 59.733 0l195.84 195.84c16.64 16.64 16.64 43.52 0 60.16l-195.84 196.267c-16.64 16.64-43.093 16.64-59.733 0s-16.64-43.093 0-59.733z"></path>
</svg>
