<!-- Generated by IcoMoon.io -->
<svg version="1.1" xmlns="http://www.w3.org/2000/svg" width="1024" height="1024" viewBox="0 0 1024 1024">
<title></title>
<g id="icomoon-ignore">
</g>
<path fill="#000" d="M399.787 235.093c-7.68 27.307-11.52 55.893-11.52 84.907 0 174.080 141.653 315.733 315.733 315.733 29.013 0 57.6-3.84 84.907-11.52-44.373 109.227-151.893 186.453-276.907 186.453-164.693 0-298.667-133.973-298.667-298.667 0-125.013 77.227-232.533 186.453-276.907zM512 128c-212.053 0-384 171.947-384 384s171.947 384 384 384 384-171.947 384-384c0-19.627-1.707-39.253-4.267-58.027-41.813 58.453-110.080 96.427-187.733 96.427-127.147 0-230.4-103.253-230.4-230.4 0-77.227 37.973-145.92 96.427-187.733-18.773-2.56-38.4-4.267-58.027-4.267v0z"></path>
</svg>
