<!-- Generated by IcoMoon.io -->
<svg version="1.1" xmlns="http://www.w3.org/2000/svg" width="1024" height="1024" viewBox="0 0 1024 1024">
<title></title>
<g id="icomoon-ignore">
</g>
<path fill="#000" d="M810.667 554.667v213.333c0 23.467-19.2 42.667-42.667 42.667h-512c-23.467 0-42.667-19.2-42.667-42.667v-213.333c0-23.467-19.2-42.667-42.667-42.667s-42.667 19.2-42.667 42.667v256c0 46.933 38.4 85.333 85.333 85.333h597.333c46.933 0 85.333-38.4 85.333-85.333v-256c0-23.467-19.2-42.667-42.667-42.667s-42.667 19.2-42.667 42.667zM554.667 540.587l80.213-80.213c16.64-16.64 43.52-16.64 60.16 0s16.64 43.52 0 60.16l-153.173 153.173c-16.64 16.64-43.52 16.64-60.16 0l-153.173-153.173c-16.64-16.64-16.64-43.52 0-60.16s43.52-16.64 60.16 0l80.64 80.213v-369.92c0-23.467 19.2-42.667 42.667-42.667s42.667 19.2 42.667 42.667v369.92z"></path>
</svg>
