<!-- Generated by IcoMoon.io -->
<svg version="1.1" xmlns="http://www.w3.org/2000/svg" width="1024" height="1024" viewBox="0 0 1024 1024">
<title></title>
<g id="icomoon-ignore">
</g>
<path fill="#2a75e6" d="M754.528 82.58c-0.089 0-0.193 0-0.299 0-105.819 0-197.396 60.97-241.523 149.696l-0.705 1.567c-44.831-90.294-136.41-151.263-242.229-151.263-0.105 0-0.21 0-0.315 0h0.016c-148.827 0-269.473 120.154-269.473 268.387 0 348.904 512 590.452 512 590.452s512-241.549 512-590.452c0-148.233-120.647-268.387-269.473-268.387z"></path>
<path fill="#f9d549" d="M36.178 512c116.726 260.006 475.823 429.42 475.823 429.42s359.098-169.414 475.823-429.42z"></path>
</svg>
