<!-- Generated by IcoMoon.io -->
<svg version="1.1" xmlns="http://www.w3.org/2000/svg" width="1024" height="1024" viewBox="0 0 1024 1024">
<title></title>
<g id="icomoon-ignore">
</g>
<path fill="#000" d="M512 384c70.4 0 128 57.6 128 128s-57.6 128-128 128-128-57.6-128-128 57.6-128 128-128zM512 298.667c-117.76 0-213.333 95.573-213.333 213.333s95.573 213.333 213.333 213.333 213.333-95.573 213.333-213.333-95.573-213.333-213.333-213.333v0zM85.333 554.667h85.333c23.467 0 42.667-19.2 42.667-42.667s-19.2-42.667-42.667-42.667h-85.333c-23.467 0-42.667 19.2-42.667 42.667s19.2 42.667 42.667 42.667zM853.333 554.667h85.333c23.467 0 42.667-19.2 42.667-42.667s-19.2-42.667-42.667-42.667h-85.333c-23.467 0-42.667 19.2-42.667 42.667s19.2 42.667 42.667 42.667zM469.333 85.333v85.333c0 23.467 19.2 42.667 42.667 42.667s42.667-19.2 42.667-42.667v-85.333c0-23.467-19.2-42.667-42.667-42.667s-42.667 19.2-42.667 42.667zM469.333 853.333v85.333c0 23.467 19.2 42.667 42.667 42.667s42.667-19.2 42.667-42.667v-85.333c0-23.467-19.2-42.667-42.667-42.667s-42.667 19.2-42.667 42.667zM255.573 195.413c-16.64-16.64-43.947-16.64-60.16 0-16.64 16.64-16.64 43.947 0 60.16l45.227 45.227c16.64 16.64 43.947 16.64 60.16 0s16.64-43.947 0-60.16l-45.227-45.227zM783.36 723.2c-16.64-16.64-43.947-16.64-60.16 0-16.64 16.64-16.64 43.947 0 60.16l45.227 45.227c16.64 16.64 43.947 16.64 60.16 0 16.64-16.64 16.64-43.947 0-60.16l-45.227-45.227zM828.587 255.573c16.64-16.64 16.64-43.947 0-60.16-16.64-16.64-43.947-16.64-60.16 0l-45.227 45.227c-16.64 16.64-16.64 43.947 0 60.16s43.947 16.64 60.16 0l45.227-45.227zM300.8 783.36c16.64-16.64 16.64-43.947 0-60.16-16.64-16.64-43.947-16.64-60.16 0l-45.227 45.227c-16.64 16.64-16.64 43.947 0 60.16s43.947 16.64 60.16 0l45.227-45.227z"></path>
</svg>
