<!-- Generated by IcoMoon.io -->
<svg version="1.1" xmlns="http://www.w3.org/2000/svg" width="1024" height="1024" viewBox="0 0 1024 1024">
<title></title>
<g id="icomoon-ignore">
</g>
<path fill="#000" d="M264.56 959.99h-185.76v-598.2h185.76zM171.58 280.19c-59.4 0-107.58-49.2-107.58-108.6 0-59.415 48.165-107.58 107.58-107.58s107.58 48.165 107.58 107.58v0c0 59.4-48.2 108.6-107.58 108.6zM959.8 959.99h-185.36v-291.2c0-69.4-1.4-158.4-96.58-158.4-96.58 0-111.38 75.4-111.38 153.4v296.2h-185.56v-598.2h178.16v81.6h2.6c24.8-47 85.38-96.6 175.76-96.6 188 0 222.56 123.8 222.56 284.6v328.6z"></path>
</svg>
