<!-- Generated by IcoMoon.io -->
<svg version="1.1" xmlns="http://www.w3.org/2000/svg" width="896" height="1024" viewBox="0 0 896 1024">
<title></title>
<g id="icomoon-ignore">
</g>
<path fill="#000" d="M849.499 599.7c5.8-28 9.4-57.8 9.4-87.6 0-227-183.8-410.6-410.6-410.6-29.8 0-59.4 3.4-87.6 9.4-38-29.4-85.2-46.8-136.6-46.8-123.6 0-224 100.4-224 224 0 51.4 17.4 98.6 46.6 136.4-5.8 28-9.4 57.8-9.4 87.6 0 227 183.8 410.6 410.6 410.6 29.8 0 59.4-3.4 87.6-9.4 38 29.2 85.2 46.6 136.4 46.6 123.6 0 224-100.4 224-224 0.2-51.2-17.2-98.4-46.4-136.2zM460.299 782.7c-131.2 0-241-58.4-241-130 0-32 18-61.2 59-61.2 62.4 0 68.2 89.8 176.2 89.8 51.4 0 84.6-22.8 84.6-52.6 0-37.4-32-43.2-84-56-125-30.8-235.6-44-235.6-174.4 0-118.4 117.2-162.2 218.2-162.2 110.2 0 221.6 43.8 221.6 110.8 0 33.8-22.8 63.6-60.6 63.6-56.6 0-58.4-67-150-67-51.4 0-84 14-84 45 0 39.6 41.6 43.6 138.2 66 82.8 18.6 181.4 53.6 181.4 155.2 0 118.2-114.2 173-224 173z"></path>
</svg>
