<!-- Generated by IcoMoon.io -->
<svg version="1.1" xmlns="http://www.w3.org/2000/svg" width="992" height="1024" viewBox="0 0 992 1024">
<title></title>
<g id="icomoon-ignore">
</g>
<path fill="#000" d="M496 16c-273.934 0-496 222.066-496 496s222.066 496 496 496 496-222.066 496-496-222.066-496-496-496zM725.904 353.32c-7.464 78.43-39.762 268.756-56.2 356.6-6.952 37.168-20.644 49.632-33.896 50.85-28.8 2.652-50.676-19.034-78.574-37.322-43.654-28.616-68.316-46.43-110.692-74.354-48.97-32.27-17.224-50 10.684-79 7.304-7.586 134.214-123.020 136.67-133.492 0.306-1.31 0.6-6.2-2.308-8.768s-7.18-1.698-10.27-1q-6.566 1.492-209.216 138.284-29.69 20.388-53.788 19.868c-17.71-0.382-51.776-10.012-77.102-18.246-31.062-10.096-55.75-15.434-53.6-32.582q1.68-13.4 36.9-27.4 216.892-94.496 289.256-124.6c137.744-57.294 166.366-67.246 185.022-67.578 4.104-0.068 13.278 0.948 19.22 5.77 3.839 3.349 6.434 8.040 7.051 13.334l0.009 0.098c0.664 4.051 1.044 8.721 1.044 13.479 0 2.132-0.076 4.247-0.226 6.341l0.016-0.281z"></path>
</svg>
