<svg width="142" height="146" viewBox="0 0 142 146" fill="none" xmlns="http://www.w3.org/2000/svg">
<path fill-rule="evenodd" clip-rule="evenodd" d="M44.6241 145.605C25.5939 139.665 9.82019 126.347 0.650391 109H37.2L49.034 81.3874C49.4573 82.3469 49.9293 83.2645 50.4499 84.14C53.2365 88.7 56.8465 92.4367 61.2799 95.35C65.7132 98.1367 70.5899 100.417 75.9099 102.19C81.3566 103.963 86.7399 105.42 92.0599 106.56C97.5065 107.7 102.447 108.84 106.88 109.98C111.313 111.12 114.923 112.577 117.71 114.35C120.497 116.123 121.89 118.53 121.89 121.57C121.89 123.723 121.13 125.623 119.61 127.27C118.217 128.79 115.937 130.057 112.77 131.07C109.603 131.957 105.423 132.4 100.23 132.4C92.5032 132.4 84.7132 131.197 76.8599 128.79C69.1332 126.257 62.2932 123.09 56.3399 119.29L44.6241 145.605ZM140.67 88.137C141.543 83.5586 142 78.8327 142 74C142 70.0808 141.699 66.2318 141.12 62.4749C135.031 59.2492 129.001 56.8442 123.03 55.26C116.823 53.4867 110.807 52.6 104.98 52.6C99.7866 52.6 95.6066 53.17 92.4399 54.31C89.2732 55.3233 86.9932 56.7167 85.5999 58.49C84.2065 60.2633 83.5099 62.29 83.5099 64.57C83.5099 67.4833 84.8399 69.8267 87.4999 71.6C90.2866 73.2467 93.8966 74.64 98.3299 75.78C102.89 76.7933 107.83 77.87 113.15 79.01C118.597 80.15 123.98 81.6067 129.3 83.38C133.373 84.6114 137.163 86.1971 140.67 88.137ZM123.701 24.9071C113.404 13.0244 99.4341 4.41123 83.557 0.833694L71.1141 29.867C71.5666 29.6511 72.0252 29.4388 72.4899 29.23C81.2299 25.3033 92.1232 23.34 105.17 23.34C111.445 23.34 117.622 23.8624 123.701 24.9071ZM6.38298 29.8257C16.008 16.6406 29.8306 6.71456 45.8851 2.01324L20.0508 62.6936L6.38298 29.8257Z" fill="currentColor"/>
</svg>
